<svg id="visual" viewBox="0 0 960 300" width="960" height="300" xmlns="http://www.w3.org/2000/svg" xmlns:xlink="http://www.w3.org/1999/xlink" version="1.1"><rect x="0" y="0" width="960" height="300" fill="#ffffff"></rect><path d="M0 62L22.8 74.3C45.7 86.7 91.3 111.3 137 117.2C182.7 123 228.3 110 274 98C319.7 86 365.3 75 411.2 69.5C457 64 503 64 548.8 76.2C594.7 88.3 640.3 112.7 686 112.5C731.7 112.3 777.3 87.7 823 79.5C868.7 71.3 914.3 79.7 937.2 83.8L960 88L960 301L937.2 301C914.3 301 868.7 301 823 301C777.3 301 731.7 301 686 301C640.3 301 594.7 301 548.8 301C503 301 457 301 411.2 301C365.3 301 319.7 301 274 301C228.3 301 182.7 301 137 301C91.3 301 45.7 301 22.8 301L0 301Z" fill="#ffac4e"></path><path d="M0 116L22.8 125.2C45.7 134.3 91.3 152.7 137 154.8C182.7 157 228.3 143 274 141C319.7 139 365.3 149 411.2 150.3C457 151.7 503 144.3 548.8 136.8C594.7 129.3 640.3 121.7 686 118.2C731.7 114.7 777.3 115.3 823 118.3C868.7 121.3 914.3 126.7 937.2 129.3L960 132L960 301L937.2 301C914.3 301 868.7 301 823 301C777.3 301 731.7 301 686 301C640.3 301 594.7 301 548.8 301C503 301 457 301 411.2 301C365.3 301 319.7 301 274 301C228.3 301 182.7 301 137 301C91.3 301 45.7 301 22.8 301L0 301Z" fill="#ff9c3b"></path><path d="M0 169L22.8 169C45.7 169 91.3 169 137 172.3C182.7 175.7 228.3 182.3 274 179C319.7 175.7 365.3 162.3 411.2 164.5C457 166.7 503 184.3 548.8 188.3C594.7 192.3 640.3 182.7 686 180.7C731.7 178.7 777.3 184.3 823 189.7C868.7 195 914.3 200 937.2 202.5L960 205L960 301L937.2 301C914.3 301 868.7 301 823 301C777.3 301 731.7 301 686 301C640.3 301 594.7 301 548.8 301C503 301 457 301 411.2 301C365.3 301 319.7 301 274 301C228.3 301 182.7 301 137 301C91.3 301 45.7 301 22.8 301L0 301Z" fill="#ff8b28"></path><path d="M0 220L22.8 220.2C45.7 220.3 91.3 220.7 137 219.3C182.7 218 228.3 215 274 211.2C319.7 207.3 365.3 202.7 411.2 198C457 193.3 503 188.7 548.8 188C594.7 187.3 640.3 190.7 686 192.5C731.7 194.3 777.3 194.7 823 195.3C868.7 196 914.3 197 937.2 197.5L960 198L960 301L937.2 301C914.3 301 868.7 301 823 301C777.3 301 731.7 301 686 301C640.3 301 594.7 301 548.8 301C503 301 457 301 411.2 301C365.3 301 319.7 301 274 301C228.3 301 182.7 301 137 301C91.3 301 45.7 301 22.8 301L0 301Z" fill="#ff7815"></path><path d="M0 249L22.8 248.5C45.7 248 91.3 247 137 250.3C182.7 253.7 228.3 261.3 274 261.5C319.7 261.7 365.3 254.3 411.2 255.2C457 256 503 265 548.8 266.2C594.7 267.3 640.3 260.7 686 252.5C731.7 244.3 777.3 234.7 823 232.2C868.7 229.7 914.3 234.3 937.2 236.7L960 239L960 301L937.2 301C914.3 301 868.7 301 823 301C777.3 301 731.7 301 686 301C640.3 301 594.7 301 548.8 301C503 301 457 301 411.2 301C365.3 301 319.7 301 274 301C228.3 301 182.7 301 137 301C91.3 301 45.7 301 22.8 301L0 301Z" fill="#ff6200"></path></svg>